# xmcd CD database file
#
# Track frame offsets:
#	150
#	720
#	26750
#	55848
#	80406
#	128223
#	160139
#	187873
#	215564
#	246285
#	285128
#
# Disc length: 4063 seconds
#
# Revision: 0
# Processed by: cddbd v1.4PL0 Copyright (c) Steve Scherf et al.
# Submitted via: CDex 1.50beta10
#
DISCID=8a0fdd0b
DTITLE=Bob Stroger - His Chicago Blues Legend
DYEAR=2002
DGENRE=Blues
TTITLE0=Introduction
TTITLE1=Talk To Me mama
TTITLE2=Stranded In St Louis
TTITLE3=Lovin' Man
TTITLE4=Extension 309
TTITLE5=Gonna Make Some Changes
TTITLE6=Loan Me Train Fare
TTITLE7=Heads Up
TTITLE8=Thinking And Drinking
TTITLE9=Going To Chicago
TTITLE10=Keep Your Hands Off Her
EXTD=YEAR: 2002
EXTT0=
EXTT1=
EXTT2=
EXTT3=
EXTT4=
EXTT5=
EXTT6=
EXTT7=
EXTT8=
EXTT9=
EXTT10=
PLAYORDER=
